<svg width="35" height="35" viewBox="0 0 35 35" fill="none" xmlns="http://www.w3.org/2000/svg">
<g clip-path="url(#clip0_27_20)">
<path d="M26.8264 10.2407C25.6675 10.243 24.7251 9.30455 24.7229 8.14558C24.7206 6.98662 25.659 6.04426 26.8185 6.042C27.9779 6.03972 28.9203 6.97867 28.9226 8.13765C28.9244 9.29662 27.9859 10.2384 26.8264 10.2407Z" fill="white"/>
<path fill-rule="evenodd" clip-rule="evenodd" d="M17.5167 26.4849C12.5549 26.4946 8.52405 22.4802 8.51442 17.5172C8.50477 12.5553 12.5203 8.52382 17.4822 8.51418C22.445 8.50454 26.4764 12.5212 26.486 17.4825C26.4957 22.4456 22.4791 26.4753 17.5167 26.4849ZM17.4883 11.6673C14.2678 11.673 11.6607 14.2897 11.6664 17.5109C11.6726 20.7327 14.2899 23.3392 17.5104 23.3329C20.7322 23.3268 23.3393 20.7105 23.333 17.4888C23.3267 14.267 20.7094 11.6611 17.4883 11.6673Z" fill="white"/>
<path fill-rule="evenodd" clip-rule="evenodd" d="M6.00717 0.942782C7.1185 0.507319 8.39027 0.20907 10.2523 0.121185C12.1189 0.0316059 12.7148 0.0111869 17.4663 0.00211841C22.2189 -0.00695009 22.8148 0.0111834 24.6814 0.0939654C26.544 0.174479 27.8164 0.468196 28.93 0.899127C30.0821 1.34309 31.0596 1.94072 32.0337 2.91088C33.0078 3.88216 33.6077 4.85628 34.0573 6.00673C34.4922 7.1192 34.7904 8.38988 34.879 10.2531C34.9673 12.1191 34.9889 12.7144 34.998 17.4666C35.007 22.2181 34.9878 22.8146 34.9061 24.6823C34.825 26.5437 34.5319 27.8167 34.1009 28.9297C33.6559 30.0819 33.0594 31.0594 32.0892 32.0336C31.1191 33.0082 30.1439 33.6076 28.9934 34.0578C27.881 34.4921 26.6104 34.7903 24.7482 34.8794C22.8817 34.9678 22.2858 34.9888 17.5327 34.9978C12.7817 35.007 12.1858 34.9888 10.3192 34.9065C8.45661 34.825 7.18371 34.5317 6.07068 34.1014C4.91854 33.6557 3.94103 33.0598 2.96692 32.0892C1.99224 31.1184 1.39181 30.1437 0.942751 28.9933C0.507293 27.8813 0.210156 26.6101 0.121148 24.7486C0.0321357 22.8814 0.0111636 22.2849 0.00209863 17.5334C-0.00700137 12.7813 0.0117201 12.186 0.0933577 10.3194C0.175583 8.45622 0.467596 7.18384 0.898523 6.06967C1.3436 4.91807 1.94009 3.94112 2.91137 2.96644C3.8815 1.99232 4.85673 1.39127 6.00717 0.942782ZM7.20641 31.1615C7.82387 31.3991 8.75034 31.6826 10.4565 31.7568C12.3026 31.8367 12.8554 31.8544 17.527 31.8453C22.2002 31.8367 22.7531 31.8169 24.5986 31.7303C26.3029 31.649 27.2294 31.3622 27.8453 31.1219C28.6622 30.8026 29.2441 30.421 29.8553 29.8092C30.4665 29.1951 30.8446 28.6116 31.1611 27.7945C31.3992 27.1766 31.6821 26.2494 31.7564 24.5433C31.8375 22.6984 31.8545 22.1449 31.8453 17.4721C31.8369 12.8006 31.817 12.2472 31.7293 10.4016C31.6486 8.69661 31.3623 7.77012 31.1214 7.15492C30.8022 6.33674 30.4217 5.75611 29.8082 5.14431C29.1947 4.53251 28.6112 4.15545 27.7931 3.83906C27.1768 3.60035 26.2491 3.31797 24.5442 3.24371C22.6979 3.16261 22.1446 3.14616 17.472 3.15525C12.8004 3.16432 12.2476 3.18302 10.402 3.27036C8.69648 3.35142 7.77112 3.63777 7.15422 3.87876C6.33773 4.19797 5.75598 4.5773 5.14421 5.19137C4.53354 5.80544 4.15535 6.38776 3.83898 7.20651C3.60198 7.82343 3.31675 8.75105 3.24363 10.4561C3.1631 12.3022 3.14611 12.8556 3.15518 17.5273C3.16369 22.1999 3.18351 22.7534 3.27028 24.5979C3.35021 26.304 3.6388 27.2293 3.87867 27.8467C4.19789 28.6627 4.57835 29.2444 5.19127 29.8563C5.80535 30.4657 6.38878 30.8451 7.20641 31.1615Z" fill="white"/>
</g>
<defs>
<clipPath id="clip0_27_20">
<rect width="35" height="35" fill="white"/>
</clipPath>
</defs>
</svg>
