<svg width="40" height="40" viewBox="0 0 40 40" fill="none" xmlns="http://www.w3.org/2000/svg">
<path fill-rule="evenodd" clip-rule="evenodd" d="M20.0138 3.61133C10.7899 3.61133 3.33325 11.1229 3.33325 20.4158C3.33325 27.8439 8.11095 34.1318 14.7389 36.3573C15.5676 36.5246 15.8711 35.9958 15.8711 35.5508C15.8711 35.1613 15.8438 33.8259 15.8438 32.4346C11.2037 33.4363 10.2374 30.4314 10.2374 30.4314C9.49172 28.4838 8.38683 27.9833 8.38683 27.9833C6.86812 26.9538 8.49745 26.9538 8.49745 26.9538C10.1821 27.0651 11.0661 28.6788 11.0661 28.6788C12.5571 31.2381 14.9598 30.5149 15.9264 30.0698C16.0643 28.9848 16.5065 28.2336 16.9759 27.8163C13.2752 27.4268 9.38144 25.9801 9.38144 19.5253C9.38144 17.6889 10.0438 16.1867 11.0934 15.0183C10.9278 14.6011 10.3477 12.8758 11.2593 10.5667C11.2593 10.5667 12.6677 10.1215 15.8434 12.2916C17.2031 11.9238 18.6053 11.7367 20.0138 11.7351C21.4221 11.7351 22.8579 11.93 24.1836 12.2916C27.3598 10.1215 28.7681 10.5667 28.7681 10.5667C29.6798 12.8758 29.0993 14.6011 28.9338 15.0183C30.0109 16.1867 30.6459 17.6889 30.6459 19.5253C30.6459 25.9801 26.7523 27.3988 23.0238 27.8163C23.6316 28.3448 24.1559 29.3463 24.1559 30.9323C24.1559 33.1858 24.1288 34.9943 24.1288 35.5504C24.1288 35.9958 24.4326 36.5246 25.2609 36.3576C31.8888 34.1314 36.6666 27.8439 36.6666 20.4158C36.6938 11.1229 29.2099 3.61133 20.0138 3.61133Z" fill="white"/>
</svg>
