<svg width="38" height="38" viewBox="0 0 38 38" fill="none" xmlns="http://www.w3.org/2000/svg">
<path d="M25.4948 28.389L21.2245 32.5167C20.4867 33.2561 19.4654 33.5649 18.3381 33.5649C17.2108 33.5649 16.1895 33.2561 15.4501 32.5167L8.59109 25.6086C7.85167 24.8692 7.47959 23.7878 7.47959 22.6589C7.47959 21.53 7.85167 20.5103 8.59109 19.7709L15.4295 12.8359C16.1689 12.0965 17.2108 11.8146 18.3381 11.8146C19.4654 11.8146 20.4867 12.1234 21.2245 12.8628L25.4948 16.989C26.3086 17.8044 27.656 17.7759 28.5031 16.9288C29.3502 16.0801 29.3787 14.7327 28.5648 13.9189L24.4339 9.74522C23.3673 8.69081 22.0259 7.9573 20.5627 7.62831L24.4688 3.66522C25.2858 2.85139 25.2573 1.50239 24.4102 0.655308C23.5631 -0.191775 22.2141 -0.218692 21.3987 0.595141L5.407 16.5884C3.85375 18.1432 3.0415 20.2886 3.0415 22.6605C3.0415 25.0323 3.85375 27.2442 5.407 28.7959L12.2898 35.7008C13.843 37.2509 15.99 37.9998 18.3603 37.9998C20.7305 37.9998 22.8775 37.1891 24.4323 35.6343L28.5633 31.4591C29.3771 30.6452 29.3486 29.2978 28.5015 28.4507C27.6544 27.6036 26.307 27.5751 25.4948 28.389ZM32.9507 20.599H16.8878C15.7763 20.599 14.8769 21.5553 14.8769 22.7301C14.8769 23.905 15.7763 24.8613 16.8878 24.8613H32.9507C34.0606 24.8613 34.9615 23.905 34.9615 22.7301C34.9615 21.5553 34.0606 20.599 32.9507 20.599Z" fill="#FFFEFE"/>
</svg>
