<svg width="34" height="34" viewBox="0 0 34 34" fill="none" xmlns="http://www.w3.org/2000/svg">
<path d="M34 2.5V31.5001C34 32.1631 33.7367 32.7989 33.2677 33.2677C32.7989 33.7367 32.1631 34 31.5001 34H2.5C1.83696 34 1.20107 33.7367 0.732228 33.2677C0.263387 32.7989 0 32.1631 0 31.5001V2.5C0 1.83696 0.263387 1.20107 0.732228 0.732228C1.20107 0.263387 1.83696 0 2.5 0H31.5001C32.1631 0 32.7989 0.263387 33.2677 0.732228C33.7367 1.20107 34 1.83696 34 2.5ZM10 13H5V28.9999H10V13ZM10.45 7.5C10.4526 7.12179 10.3807 6.74677 10.2384 6.39634C10.0961 6.04592 9.8862 5.72694 9.62064 5.45766C9.35506 5.18836 9.03903 4.97401 8.69061 4.82687C8.3422 4.6797 7.9682 4.60262 7.59001 4.59999H7.5C6.73087 4.59999 5.99324 4.90554 5.44939 5.44939C4.90554 5.99324 4.59999 6.73087 4.59999 7.5C4.59999 8.26912 4.90554 9.00675 5.44939 9.55062C5.99324 10.0945 6.73087 10.4 7.5 10.4C7.87823 10.4093 8.2546 10.344 8.60759 10.2078C8.96057 10.0716 9.28327 9.86718 9.55721 9.60623C9.83117 9.34526 10.051 9.03289 10.2042 8.68694C10.3574 8.34099 10.4409 7.96824 10.45 7.59001V7.5ZM28.9999 19.2801C28.9999 14.47 25.9399 12.6 22.8999 12.6C21.9047 12.5502 20.9136 12.7622 20.0258 13.2149C19.1378 13.6676 18.3842 14.3452 17.84 15.1801H17.7V13H13V28.9999H18V20.4899C17.9276 19.6184 18.2023 18.7535 18.764 18.0833C19.3258 17.4129 20.1293 16.9913 20.9999 16.9101H21.1899C22.78 16.9101 23.96 17.9101 23.96 20.43V28.9999H28.9601L28.9999 19.2801Z" fill="white"/>
</svg>
