<svg width="200" height="200" viewBox="0 0 200 200" fill="none" xmlns="http://www.w3.org/2000/svg">
<rect width="200" height="200" fill="black"/>
<path d="M128.351 60.92C128.265 61.944 128.052 63.1813 127.711 64.632C127.455 65.9973 127.113 67.32 126.687 68.6C126.26 69.7947 125.833 70.8187 125.407 71.672C124.98 72.5253 124.639 72.8667 124.383 72.696C124.297 72.696 124.255 72.4827 124.255 72.056C124.255 71.6293 124.255 71.16 124.255 70.648C124.255 70.0507 124.297 69.496 124.383 68.984C124.468 68.472 124.511 68.088 124.511 67.832C124.767 66.4667 124.937 65.1867 125.023 63.992C125.108 62.7973 125.236 61.56 125.407 60.28C125.577 58.6587 125.663 57.1227 125.663 55.672C125.748 54.2213 125.663 52.728 125.407 51.192C125.407 51.0213 125.364 50.808 125.279 50.552C125.193 50.296 125.236 50.168 125.407 50.168C125.663 50.168 125.961 50.3813 126.303 50.808C126.644 51.1493 126.857 51.4053 126.943 51.576C127.455 52.6 127.839 53.7947 128.095 55.16C128.436 56.5253 128.521 58.4453 128.351 60.92ZM130.015 51.96C131.465 55.3733 132.319 58.7867 132.575 62.2C132.916 65.528 132.831 68.8987 132.319 72.312C131.892 75.64 131.081 78.968 129.887 82.296C128.777 85.624 127.497 88.8667 126.047 92.024C124.084 96.2907 121.993 100.472 119.775 104.568C117.641 108.664 115.551 112.675 113.503 116.6C111.455 120.525 109.535 124.365 107.743 128.12C106.036 131.789 104.671 135.416 103.647 139C103.476 139.427 103.263 139.597 103.007 139.512C102.836 139.427 102.751 139.256 102.751 139C102.58 134.904 103.177 130.808 104.543 126.712C105.908 122.531 107.615 118.349 109.663 114.168C111.796 109.987 114.057 105.805 116.447 101.624C118.921 97.3573 121.14 93.048 123.103 88.696C124.383 85.9653 125.535 83.1067 126.559 80.12C127.583 77.1333 128.393 74.0613 128.991 70.904C129.673 67.7467 130.057 64.632 130.143 61.56C130.313 58.4027 130.1 55.3307 129.503 52.344C129.332 51.576 129.332 51.2347 129.503 51.32C129.588 51.32 129.759 51.5333 130.015 51.96ZM88.4145 102.008C88.4145 102.264 88.3718 102.819 88.2865 103.672C88.2865 104.44 88.1585 104.824 87.9025 104.824C87.7318 104.909 87.5185 104.611 87.2625 103.928C87.0065 103.16 86.7932 102.563 86.6225 102.136C86.2812 101.027 85.8972 99.704 85.4705 98.168C85.0438 96.5467 84.6172 94.9253 84.1905 93.304C83.8492 91.5973 83.5078 89.9333 83.1665 88.312C82.9105 86.6907 82.7398 85.2827 82.6545 84.088C82.5692 83.4907 82.3985 82.3387 82.1425 80.632C81.8865 78.84 81.5452 76.7493 81.1185 74.36C80.6918 71.9707 80.1798 69.4107 79.5825 66.68C79.0705 63.9493 78.4732 61.3467 77.7905 58.872C77.1932 56.312 76.5532 54.0507 75.8705 52.088C75.1878 50.04 74.5052 48.5467 73.8225 47.608C73.3958 47.0107 73.2678 46.6267 73.4385 46.456C73.6092 46.2853 73.8225 46.328 74.0785 46.584C74.3345 46.7547 74.5478 46.9253 74.7185 47.096C76.0838 48.12 77.3638 49.5707 78.5585 51.448C79.8385 53.3253 80.9905 55.3307 82.0145 57.464C83.0385 59.5973 83.8918 61.816 84.5745 64.12C85.2572 66.3387 85.7265 68.344 85.9825 70.136C86.7505 75.1707 87.3052 80.504 87.6465 86.136C87.9878 91.768 88.2438 97.0587 88.4145 102.008ZM96.4785 120.056C94.7718 114.339 93.4065 108.451 92.3825 102.392C91.3585 96.3333 90.4625 90.232 89.6945 84.088C89.0972 79.5653 88.4145 75.0427 87.6465 70.52C86.8785 65.9973 85.6838 61.304 84.0625 56.44C83.8918 56.0133 83.8065 55.8 83.8065 55.8C83.8065 55.7147 83.8918 55.6293 84.0625 55.544C84.2332 55.544 84.5318 55.7573 84.9585 56.184C86.7505 57.976 88.2438 60.7493 89.4385 64.504C90.7185 68.2587 91.7852 72.2693 92.6385 76.536C93.5772 80.7173 94.3452 84.8133 94.9425 88.824C95.5398 92.7493 96.0518 95.9067 96.4785 98.296C96.9052 100.259 97.2465 102.264 97.5025 104.312C97.8438 106.36 98.0998 108.408 98.2705 110.456C98.8678 108.152 99.6785 105.805 100.703 103.416C101.727 100.941 102.751 98.552 103.775 96.248C104.884 93.944 105.951 91.8107 106.975 89.848C108.084 87.8 108.98 86.0507 109.663 84.6C111.455 80.76 113.503 76.92 115.807 73.08C118.111 69.1547 120.244 65.8693 122.207 63.224C122.975 62.2 123.401 61.688 123.487 61.688C123.657 61.8587 123.657 62.1573 123.487 62.584C123.401 62.9253 123.273 63.3093 123.103 63.736C121.396 69.88 119.049 75.8533 116.063 81.656C113.161 87.4587 110.217 93.304 107.231 99.192C105.524 102.435 103.817 105.72 102.111 109.048C100.404 112.376 99.1238 116.088 98.2705 120.184C98.0998 121.123 97.8438 121.72 97.5025 121.976C97.2465 122.147 96.9052 121.507 96.4785 120.056ZM100.447 139C100.703 139.171 100.745 139.256 100.575 139.256C100.489 139.341 100.319 139.299 100.062 139.128C96.7345 137.592 93.8758 135.501 91.4865 132.856C89.0972 130.125 87.0492 127.096 85.3425 123.768C83.7212 120.44 82.3985 116.899 81.3745 113.144C80.3505 109.389 79.4972 105.677 78.8145 102.008C77.8758 96.888 77.1505 91.768 76.6385 86.648C76.1265 81.528 75.5292 76.536 74.8465 71.672C74.2492 66.7227 73.5238 62.0293 72.6705 57.592C71.8172 53.0693 70.6225 48.9307 69.0865 45.176C69.0012 45.0053 68.9158 44.8773 68.8305 44.792C68.8305 44.6213 68.9158 44.4507 69.0865 44.28C69.1718 44.1947 69.2998 44.28 69.4705 44.536C69.6412 44.792 69.7692 45.0053 69.8545 45.176C72.4998 48.76 74.4625 52.856 75.7425 57.464C77.1078 61.9867 78.1318 66.808 78.8145 71.928C79.4972 76.9627 80.0518 82.168 80.4785 87.544C80.9905 92.8347 81.7158 97.9973 82.6545 103.032C83.2518 106.275 84.0625 109.603 85.0865 113.016C86.1105 116.344 87.3478 119.629 88.7985 122.872C90.2492 126.029 91.9132 129.016 93.7905 131.832C95.7532 134.563 97.9718 136.952 100.447 139ZM99.8065 135.8C99.2945 135.288 98.6118 134.605 97.7585 133.752C96.9905 132.899 96.2652 132.003 95.5825 131.064C95.0705 130.211 94.5158 129.101 93.9185 127.736C93.3212 126.285 92.7665 124.877 92.2545 123.512C91.8278 122.147 91.4865 120.952 91.2305 119.928C91.0598 118.819 91.1025 118.221 91.3585 118.136C91.4438 118.136 91.6145 118.349 91.8705 118.776C92.2118 119.117 92.5105 119.544 92.7665 120.056C93.0225 120.568 93.2785 121.08 93.5345 121.592C93.7905 122.019 94.0038 122.317 94.1745 122.488C94.8572 123.683 95.4545 124.792 95.9665 125.816C96.4785 126.755 96.9478 127.779 97.3745 128.888C97.8865 129.997 98.3985 130.979 98.9105 131.832C99.5078 132.6 99.8492 132.941 99.9345 132.856C100.02 132.856 100.02 132.643 99.9345 132.216C99.9345 131.704 99.8918 131.149 99.8065 130.552C99.8065 129.955 99.7638 129.4 99.6785 128.888C99.6785 128.291 99.6785 127.864 99.6785 127.608C99.5078 124.365 99.7638 121.464 100.447 118.904C101.215 116.344 102.068 113.997 103.007 111.864C104.969 107.512 107.273 103.16 109.919 98.808C112.564 94.456 115.252 90.36 117.983 86.52C118.153 86.3493 118.495 85.9653 119.007 85.368C119.519 84.7707 119.86 84.5147 120.031 84.6C120.287 84.6853 120.287 85.112 120.031 85.88C119.86 86.5627 119.732 87.032 119.647 87.288C119.305 88.312 118.836 89.5067 118.239 90.872C117.727 92.2373 117.172 93.688 116.575 95.224C115.977 96.6747 115.337 98.0827 114.655 99.448C114.057 100.813 113.503 101.965 112.991 102.904C112.735 103.416 112.265 104.397 111.583 105.848C110.9 107.299 110.132 109.091 109.279 111.224C108.425 113.272 107.529 115.491 106.591 117.88C105.652 120.269 104.756 122.616 103.903 124.92C103.135 127.139 102.495 129.187 101.983 131.064C101.471 132.941 101.215 134.435 101.215 135.544C101.215 136.141 101.087 136.44 100.831 136.44C100.575 136.44 100.233 136.227 99.8065 135.8Z" fill="white"/>
</svg>
